<svg xmlns="http://www.w3.org/2000/svg" xmlns:xlink="http://www.w3.org/1999/xlink" width="500" zoomAndPan="magnify" viewBox="0 0 375 374.999991" height="500" preserveAspectRatio="xMidYMid meet" version="1.0"><defs><clipPath id="dae0f35f36"><path d="M 0.191406 15.339844 L 374.785156 15.339844 L 374.785156 359.589844 L 0.191406 359.589844 Z M 0.191406 15.339844 " clip-rule="nonzero"/></clipPath><clipPath id="ce2f668501"><path d="M 0.191406 15.339844 L 374.785156 15.339844 L 374.785156 359.589844 L 0.191406 359.589844 Z M 0.191406 15.339844 " clip-rule="nonzero"/></clipPath></defs><g clip-path="url(#dae0f35f36)"><path fill="#000000" d="M 364.414062 103.175781 L 364.257812 102.796875 C 362.484375 98.371094 360.648438 93.789062 361.167969 89.339844 C 361.5625 85.941406 363.265625 82.832031 365.0625 79.546875 C 365.4375 78.847656 365.820312 78.148438 366.191406 77.449219 C 368.105469 73.800781 370.484375 68.339844 368.964844 63.007812 C 368.101562 59.980469 365.566406 57.308594 362.503906 56.210938 C 360.015625 55.308594 357.546875 55.5625 355.5625 56.917969 C 352.359375 59.105469 351.785156 62.886719 351.285156 66.21875 C 350.90625 68.714844 350.546875 71.078125 349.25 72.671875 C 348.15625 74.019531 346.378906 74.792969 344.492188 75.613281 C 343.160156 76.191406 341.78125 76.785156 340.503906 77.644531 C 333.664062 82.246094 332.96875 91.894531 335.316406 99.410156 C 336.316406 102.628906 337.75 105.6875 339.144531 108.652344 C 340.835938 112.265625 342.4375 115.679688 343.308594 119.347656 C 346.558594 132.976562 337.160156 148.566406 323.589844 152.058594 C 315.054688 154.253906 305.714844 152.25 296.664062 150.316406 C 285.558594 147.949219 274.074219 145.492188 263.699219 150.625 C 248.398438 158.199219 245.011719 177.929688 244.351562 189.007812 C 244.304688 189.902344 244.261719 190.796875 244.214844 191.699219 C 243.929688 197.308594 243.644531 203.117188 241.273438 208.007812 C 238.769531 213.1875 232.566406 217.421875 227.316406 215.457031 C 222.433594 213.648438 220.367188 207.554688 219.566406 204.09375 C 215.792969 187.730469 221.792969 170.460938 226.640625 158.894531 C 228.25 155.050781 230.007812 151.171875 231.707031 147.410156 C 236.511719 136.804688 241.484375 125.832031 243.90625 114.183594 C 250.027344 84.710938 238.273438 52.394531 214.648438 33.742188 C 200.691406 22.734375 182.886719 16.410156 163.167969 15.460938 C 144.941406 14.578125 125.535156 18.460938 108.535156 26.382812 C 89.449219 35.285156 71.691406 48.929688 54.757812 67.753906 C 48.652344 73.816406 43.210938 80.625 38.378906 87.910156 C 37.472656 89.144531 36.5625 90.386719 35.660156 91.648438 C 32.078125 88.371094 28.492188 85.089844 24.910156 81.804688 C 18.234375 75.6875 13.796875 76.289062 11.253906 77.871094 C 8.058594 79.847656 7.28125 83.910156 6.859375 86.097656 C 1.9375 112.1875 2.144531 139.734375 7.460938 165.828125 C -1.578125 184.601562 -2.234375 211.894531 5.742188 239.011719 C 14.480469 268.738281 28.191406 290.578125 48.875 307.753906 C 87.816406 340.085938 137.128906 358.492188 187.722656 359.574219 C 189.183594 359.601562 190.628906 359.625 192.058594 359.625 C 208.203125 359.625 221.804688 357.550781 233.503906 353.316406 C 258.488281 344.269531 280.109375 322.699219 291.339844 295.609375 C 301.304688 271.558594 303.765625 243.132812 298.453125 213.425781 C 297.472656 207.921875 296.878906 201.289062 301.019531 198.835938 C 302.816406 197.78125 305.222656 197.777344 307.527344 197.859375 C 310.097656 197.957031 312.746094 198.125 315.304688 198.289062 C 325.285156 198.917969 335.601562 199.582031 345.21875 196.113281 C 363.160156 189.664062 372.828125 170.46875 374.453125 154.304688 C 376.3125 135.742188 370.0625 117.226562 364.414062 103.175781 " fill-opacity="1" fill-rule="nonzero"/></g><path fill="#ffffff" d="M 115.585938 76.773438 C 122.757812 64.347656 123.433594 51.296875 117.09375 47.644531 C 110.75 43.980469 99.789062 51.089844 92.617188 63.511719 C 85.4375 75.941406 84.761719 88.988281 91.113281 92.648438 C 97.453125 96.3125 108.410156 89.203125 115.585938 76.773438 Z M 122.59375 112.335938 C 122.957031 110.726562 120.457031 110.984375 119.855469 111.878906 C 116.203125 117.332031 111.472656 126.070312 104.121094 119.707031 C 99.421875 115.632812 97.902344 108.628906 99.980469 102.855469 C 100.527344 101.3125 98.050781 100.847656 97.453125 102.117188 C 93.839844 109.71875 95.820312 119.8125 103.355469 124.339844 C 112.582031 129.886719 120.699219 120.832031 122.59375 112.335938 Z M 171.238281 101.28125 C 179.671875 86.683594 180.46875 71.355469 173.015625 67.054688 C 165.5625 62.753906 152.683594 71.101562 144.253906 85.707031 C 135.824219 100.304688 135.023438 115.632812 142.476562 119.933594 C 149.929688 124.234375 162.808594 115.890625 171.238281 101.28125 Z M 186.097656 179.597656 C 187.144531 181.1875 190.269531 179.996094 189.449219 178.074219 C 184.484375 166.421875 176.625 155.890625 168.40625 146.339844 C 162.207031 139.128906 153.6875 127.953125 142.71875 130.863281 C 130.648438 134.058594 132.734375 148.742188 134.214844 157.945312 C 135.304688 164.738281 136.394531 171.53125 137.554688 178.3125 C 138.648438 184.789062 138.980469 192.65625 141.777344 198.621094 C 142.121094 199.332031 143.628906 199.25 143.734375 198.394531 C 144.382812 193.050781 142.871094 187.113281 142.097656 181.816406 C 141.277344 176.207031 140.449219 170.589844 139.570312 164.976562 C 138.6875 159.300781 137.378906 153.492188 137.085938 147.738281 C 136.808594 142.296875 138.441406 134.253906 145.238281 133.847656 C 150.570312 133.53125 154.886719 137.8125 158.265625 141.382812 C 161.898438 145.234375 165.328125 149.289062 168.570312 153.46875 C 175.03125 161.789062 180.324219 170.8125 186.097656 179.597656 Z M 278.210938 275.625 C 278.425781 273.84375 275.539062 274.015625 275.140625 275.488281 C 269.191406 297.617188 256.308594 317.75 236.386719 329.6875 C 214.621094 342.726562 187.535156 344.101562 163.980469 335.273438 C 162.824219 334.835938 161.144531 336.582031 162.597656 337.246094 C 199.742188 354.121094 245.292969 339.988281 267.035156 305.664062 C 272.839844 296.503906 276.898438 286.433594 278.210938 275.625 Z M 360.960938 104.570312 C 366.453125 118.21875 372.53125 136.179688 370.757812 153.9375 C 369.242188 168.933594 360.375 186.707031 343.964844 192.617188 C 335.066406 195.8125 325.140625 195.183594 315.535156 194.570312 C 312.957031 194.40625 310.28125 194.242188 307.664062 194.140625 C 304.929688 194.039062 301.796875 194.058594 299.132812 195.632812 C 293.011719 199.25 293.597656 207.390625 294.792969 214.082031 C 299.984375 243.089844 297.597656 270.789062 287.90625 294.1875 C 277.066406 320.324219 256.253906 341.117188 232.234375 349.820312 C 219.945312 354.265625 205.40625 356.242188 187.800781 355.859375 C 138.042969 354.789062 89.554688 336.6875 51.257812 304.886719 C 31.160156 288.207031 17.835938 266.941406 9.3125 237.960938 C 1.511719 211.441406 2.175781 184.871094 11.082031 166.898438 C 11.261719 166.527344 11.3125 166.097656 11.230469 165.691406 C 5.890625 139.894531 5.644531 112.609375 10.519531 86.789062 C 10.945312 84.546875 11.546875 82.058594 13.207031 81.027344 C 13.773438 80.675781 14.398438 80.527344 15.050781 80.527344 C 17.4375 80.527344 20.246094 82.578125 22.398438 84.546875 C 26.234375 88.066406 30.078125 91.585938 33.914062 95.101562 C 25.835938 108.921875 19.804688 124.09375 15.644531 139.050781 C 15.277344 140.390625 17.691406 140.414062 18.074219 139.25 C 22.347656 126.332031 27.875 113.804688 34.515625 101.9375 C 37.785156 96.078125 41.425781 90.496094 45.226562 85.019531 C 65.523438 58.75 86.832031 40.613281 110.109375 29.761719 C 126.5625 22.082031 145.351562 18.324219 162.988281 19.179688 C 181.933594 20.09375 199 26.140625 212.339844 36.664062 C 234.886719 54.464844 246.101562 85.308594 240.257812 113.421875 C 237.925781 124.671875 233.039062 135.449219 228.320312 145.875 C 226.609375 149.65625 224.832031 153.566406 223.203125 157.457031 C 218.164062 169.496094 211.921875 187.515625 215.941406 204.925781 C 217.613281 212.171875 221.191406 217.148438 226.023438 218.945312 C 233.398438 221.699219 241.425781 216.253906 244.628906 209.628906 C 247.320312 204.050781 247.628906 197.867188 247.929688 191.878906 C 247.976562 190.992188 248.019531 190.113281 248.066406 189.234375 C 248.675781 178.949219 251.726562 160.707031 265.347656 153.96875 C 274.5625 149.402344 284.925781 151.613281 295.890625 153.957031 C 305.351562 155.984375 315.136719 158.074219 324.515625 155.660156 C 340.210938 151.621094 350.6875 134.25 346.925781 118.488281 C 345.964844 114.445312 344.210938 110.699219 342.503906 107.074219 C 341.117188 104.097656 339.800781 101.28125 338.867188 98.304688 C 336.992188 92.300781 337.355469 84.25 342.574219 80.734375 C 343.574219 80.066406 344.738281 79.5625 345.980469 79.023438 C 348.183594 78.0625 350.46875 77.070312 352.140625 75.019531 C 354.070312 72.636719 354.546875 69.519531 354.960938 66.777344 C 355.410156 63.820312 355.796875 61.261719 357.660156 59.992188 C 358.910156 59.136719 360.300781 59.363281 361.238281 59.707031 C 363.183594 60.40625 364.84375 62.144531 365.386719 64.023438 C 366.535156 68.070312 364.519531 72.636719 362.894531 75.71875 C 362.542969 76.40625 362.164062 77.082031 361.789062 77.765625 C 359.902344 81.214844 357.953125 84.796875 357.472656 88.902344 C 356.84375 94.296875 358.859375 99.320312 360.804688 104.179688 L 360.960938 104.570312 " fill-opacity="1" fill-rule="nonzero"/><g clip-path="url(#ce2f668501)"><path fill="#000000" d="M 92.617188 63.511719 C 85.4375 75.941406 84.761719 88.988281 91.113281 92.648438 C 97.453125 96.3125 108.410156 89.203125 115.585938 76.773438 C 122.757812 64.347656 123.433594 51.296875 117.09375 47.644531 C 110.75 43.980469 99.789062 51.089844 92.617188 63.511719 Z M 104.121094 119.707031 C 99.421875 115.632812 97.902344 108.628906 99.980469 102.855469 C 100.527344 101.3125 98.050781 100.847656 97.453125 102.117188 C 93.839844 109.71875 95.820312 119.8125 103.355469 124.339844 C 112.582031 129.886719 120.699219 120.832031 122.59375 112.335938 C 122.957031 110.726562 120.457031 110.984375 119.855469 111.878906 C 116.203125 117.332031 111.472656 126.070312 104.121094 119.707031 Z M 144.253906 85.707031 C 135.824219 100.304688 135.023438 115.632812 142.476562 119.933594 C 149.929688 124.234375 162.808594 115.890625 171.238281 101.28125 C 179.671875 86.683594 180.46875 71.355469 173.015625 67.054688 C 165.5625 62.753906 152.683594 71.101562 144.253906 85.707031 Z M 168.40625 146.339844 C 162.207031 139.128906 153.6875 127.953125 142.71875 130.863281 C 130.648438 134.058594 132.734375 148.742188 134.214844 157.945312 C 135.304688 164.738281 136.394531 171.53125 137.554688 178.3125 C 138.648438 184.789062 138.980469 192.65625 141.777344 198.621094 C 142.121094 199.332031 143.628906 199.25 143.734375 198.394531 C 144.382812 193.050781 142.871094 187.113281 142.097656 181.816406 C 141.277344 176.207031 140.449219 170.589844 139.570312 164.976562 C 138.6875 159.300781 137.378906 153.492188 137.085938 147.738281 C 136.808594 142.296875 138.441406 134.253906 145.238281 133.847656 C 150.570312 133.53125 154.886719 137.8125 158.265625 141.382812 C 161.898438 145.234375 165.328125 149.289062 168.570312 153.46875 C 175.03125 161.789062 180.324219 170.8125 186.097656 179.597656 C 187.144531 181.1875 190.269531 179.996094 189.449219 178.074219 C 184.484375 166.421875 176.625 155.890625 168.40625 146.339844 Z M 236.386719 329.6875 C 214.621094 342.726562 187.535156 344.101562 163.980469 335.273438 C 162.824219 334.835938 161.144531 336.582031 162.597656 337.246094 C 199.742188 354.121094 245.292969 339.988281 267.035156 305.664062 C 272.839844 296.503906 276.898438 286.433594 278.210938 275.625 C 278.425781 273.84375 275.539062 274.015625 275.140625 275.488281 C 269.191406 297.617188 256.308594 317.75 236.386719 329.6875 Z M 370.757812 153.9375 C 372.53125 136.179688 366.453125 118.21875 360.960938 104.570312 L 360.804688 104.179688 C 358.859375 99.320312 356.84375 94.296875 357.472656 88.902344 C 357.953125 84.796875 359.902344 81.214844 361.789062 77.765625 C 362.164062 77.082031 362.542969 76.40625 362.894531 75.71875 C 364.519531 72.636719 366.535156 68.070312 365.386719 64.023438 C 364.84375 62.144531 363.183594 60.40625 361.238281 59.707031 C 360.300781 59.363281 358.910156 59.136719 357.660156 59.992188 C 355.796875 61.261719 355.410156 63.820312 354.960938 66.777344 C 354.546875 69.519531 354.070312 72.636719 352.140625 75.019531 C 350.46875 77.070312 348.183594 78.0625 345.980469 79.023438 C 344.738281 79.5625 343.574219 80.066406 342.574219 80.734375 C 337.355469 84.25 336.992188 92.300781 338.867188 98.304688 C 339.800781 101.28125 341.117188 104.097656 342.503906 107.074219 C 344.210938 110.699219 345.964844 114.445312 346.925781 118.488281 C 350.6875 134.25 340.210938 151.621094 324.515625 155.660156 C 315.136719 158.074219 305.351562 155.984375 295.890625 153.957031 C 284.925781 151.613281 274.5625 149.402344 265.347656 153.96875 C 251.726562 160.707031 248.675781 178.949219 248.066406 189.234375 C 248.019531 190.113281 247.976562 190.992188 247.929688 191.878906 C 247.628906 197.867188 247.320312 204.050781 244.628906 209.628906 C 241.425781 216.253906 233.398438 221.699219 226.023438 218.945312 C 221.191406 217.148438 217.613281 212.171875 215.941406 204.925781 C 211.921875 187.515625 218.164062 169.496094 223.203125 157.457031 C 224.832031 153.566406 226.609375 149.65625 228.320312 145.875 C 233.039062 135.449219 237.925781 124.671875 240.257812 113.421875 C 246.101562 85.308594 234.886719 54.464844 212.339844 36.664062 C 199 26.140625 181.933594 20.09375 162.988281 19.179688 C 145.351562 18.324219 126.5625 22.082031 110.109375 29.761719 C 86.832031 40.613281 65.523438 58.75 45.226562 85.019531 C 41.425781 90.496094 37.785156 96.078125 34.515625 101.9375 C 27.875 113.804688 22.347656 126.332031 18.074219 139.25 C 17.691406 140.414062 15.277344 140.390625 15.644531 139.050781 C 19.804688 124.09375 25.835938 108.921875 33.914062 95.101562 C 30.078125 91.585938 26.234375 88.066406 22.398438 84.546875 C 20.246094 82.578125 17.4375 80.527344 15.050781 80.527344 C 14.398438 80.527344 13.773438 80.675781 13.207031 81.027344 C 11.546875 82.058594 10.945312 84.546875 10.519531 86.789062 C 5.644531 112.609375 5.890625 139.894531 11.230469 165.691406 C 11.3125 166.097656 11.261719 166.527344 11.082031 166.898438 C 2.175781 184.871094 1.511719 211.441406 9.3125 237.960938 C 17.835938 266.941406 31.160156 288.207031 51.257812 304.886719 C 89.554688 336.6875 138.042969 354.789062 187.800781 355.859375 C 205.40625 356.242188 219.945312 354.265625 232.234375 349.820312 C 256.253906 341.117188 277.066406 320.324219 287.90625 294.1875 C 297.597656 270.789062 299.984375 243.089844 294.792969 214.082031 C 293.597656 207.390625 293.011719 199.25 299.132812 195.632812 C 301.796875 194.058594 304.929688 194.039062 307.664062 194.140625 C 310.28125 194.242188 312.957031 194.40625 315.535156 194.570312 C 325.140625 195.183594 335.066406 195.8125 343.964844 192.617188 C 360.375 186.707031 369.242188 168.933594 370.757812 153.9375 Z M 364.414062 103.175781 C 370.0625 117.226562 376.3125 135.742188 374.453125 154.304688 C 372.828125 170.46875 363.160156 189.664062 345.21875 196.113281 C 335.601562 199.582031 325.285156 198.917969 315.304688 198.289062 C 312.746094 198.125 310.097656 197.957031 307.527344 197.859375 C 305.222656 197.777344 302.816406 197.78125 301.019531 198.835938 C 296.878906 201.289062 297.472656 207.921875 298.453125 213.425781 C 303.765625 243.132812 301.304688 271.558594 291.339844 295.609375 C 280.109375 322.699219 258.488281 344.269531 233.503906 353.316406 C 221.804688 357.550781 208.203125 359.625 192.058594 359.625 C 190.628906 359.625 189.183594 359.601562 187.722656 359.574219 C 137.128906 358.492188 87.816406 340.085938 48.875 307.753906 C 28.191406 290.578125 14.480469 268.738281 5.742188 239.011719 C -2.234375 211.894531 -1.578125 184.601562 7.460938 165.828125 C 2.144531 139.734375 1.9375 112.1875 6.859375 86.097656 C 7.28125 83.910156 8.058594 79.847656 11.253906 77.871094 C 13.796875 76.289062 18.234375 75.6875 24.910156 81.804688 C 28.492188 85.089844 32.078125 88.371094 35.660156 91.648438 C 36.5625 90.386719 37.472656 89.144531 38.378906 87.910156 C 43.210938 80.625 48.652344 73.816406 54.753906 67.753906 C 71.691406 48.929688 89.449219 35.285156 108.535156 26.382812 C 125.535156 18.460938 144.941406 14.578125 163.167969 15.460938 C 182.886719 16.410156 200.691406 22.734375 214.648438 33.742188 C 238.273438 52.394531 250.027344 84.710938 243.90625 114.183594 C 241.484375 125.832031 236.511719 136.804688 231.707031 147.410156 C 230.007812 151.171875 228.25 155.050781 226.640625 158.894531 C 221.792969 170.460938 215.792969 187.730469 219.566406 204.09375 C 220.367188 207.554688 222.433594 213.648438 227.316406 215.457031 C 232.566406 217.421875 238.769531 213.1875 241.273438 208.007812 C 243.644531 203.117188 243.929688 197.308594 244.214844 191.699219 C 244.261719 190.796875 244.304688 189.902344 244.351562 189.007812 C 245.011719 177.929688 248.398438 158.199219 263.699219 150.625 C 274.074219 145.492188 285.558594 147.949219 296.664062 150.316406 C 305.714844 152.25 315.054688 154.253906 323.589844 152.058594 C 337.160156 148.566406 346.558594 132.976562 343.308594 119.347656 C 342.4375 115.679688 340.835938 112.265625 339.144531 108.652344 C 337.75 105.6875 336.316406 102.628906 335.316406 99.410156 C 332.96875 91.894531 333.664062 82.246094 340.503906 77.644531 C 341.78125 76.785156 343.160156 76.191406 344.492188 75.613281 C 346.378906 74.792969 348.15625 74.019531 349.25 72.671875 C 350.546875 71.078125 350.90625 68.714844 351.285156 66.21875 C 351.785156 62.886719 352.359375 59.105469 355.5625 56.917969 C 357.546875 55.5625 360.015625 55.308594 362.503906 56.210938 C 365.566406 57.308594 368.101562 59.980469 368.964844 63.007812 C 370.484375 68.339844 368.105469 73.800781 366.191406 77.449219 C 365.820312 78.148438 365.4375 78.847656 365.0625 79.546875 C 363.265625 82.832031 361.5625 85.941406 361.167969 89.339844 C 360.648438 93.789062 362.484375 98.371094 364.257812 102.796875 L 364.414062 103.175781 " fill-opacity="1" fill-rule="nonzero"/></g></svg>